<mxfile host="app.diagrams.net" agent="Mozilla/5.0 (Windows NT 10.0; Win64; x64) AppleWebKit/537.36 (KHTML, like Gecko) Chrome/137.0.0.0 Safari/537.36" version="27.1.6">
  <diagram name="Page-1" id="-9Y_kzjMXiGFkFCnPePE">
    <mxGraphModel grid="1" page="1" gridSize="10" guides="1" tooltips="1" connect="1" arrows="1" fold="1" pageScale="1" pageWidth="850" pageHeight="1100" math="0" shadow="0">
      <root>
        <mxCell id="0" />
        <mxCell id="1" parent="0" />
        <mxCell id="otBwiOCCnSAmuV2NcMX0-21" value="&lt;p style=&quot;margin:0px;margin-top:4px;text-align:center;&quot;&gt;&lt;b&gt;Kepala Sekolah&lt;/b&gt;&lt;/p&gt;&lt;hr size=&quot;1&quot; style=&quot;border-style:solid;&quot;&gt;&lt;div style=&quot;height:2px;&quot;&gt;&lt;/div&gt;" style="verticalAlign=top;align=left;overflow=fill;html=1;whiteSpace=wrap;" vertex="1" parent="1">
          <mxGeometry x="240" y="35" width="320" height="950" as="geometry" />
        </mxCell>
        <mxCell id="mF1HwqhdDmIjb0mbFp_T-10" style="edgeStyle=orthogonalEdgeStyle;rounded=0;orthogonalLoop=1;jettySize=auto;html=1;" edge="1" parent="1" source="otBwiOCCnSAmuV2NcMX0-25" target="mF1HwqhdDmIjb0mbFp_T-1">
          <mxGeometry relative="1" as="geometry" />
        </mxCell>
        <mxCell id="otBwiOCCnSAmuV2NcMX0-25" value="" style="ellipse;html=1;fillColor=#000000;strokeColor=#ff0000;" vertex="1" parent="1">
          <mxGeometry x="382.25" y="70" width="30" height="30" as="geometry" />
        </mxCell>
        <mxCell id="mF1HwqhdDmIjb0mbFp_T-11" style="edgeStyle=orthogonalEdgeStyle;rounded=0;orthogonalLoop=1;jettySize=auto;html=1;" edge="1" parent="1" source="mF1HwqhdDmIjb0mbFp_T-1" target="mF1HwqhdDmIjb0mbFp_T-3">
          <mxGeometry relative="1" as="geometry" />
        </mxCell>
        <mxCell id="mF1HwqhdDmIjb0mbFp_T-1" value="Mengumpulkan Data Guru" style="rounded=0;whiteSpace=wrap;html=1;" vertex="1" parent="1">
          <mxGeometry x="319.75" y="150" width="155" height="60" as="geometry" />
        </mxCell>
        <mxCell id="mF1HwqhdDmIjb0mbFp_T-12" style="edgeStyle=orthogonalEdgeStyle;rounded=0;orthogonalLoop=1;jettySize=auto;html=1;entryX=0.5;entryY=0;entryDx=0;entryDy=0;" edge="1" parent="1" source="mF1HwqhdDmIjb0mbFp_T-3" target="mF1HwqhdDmIjb0mbFp_T-4">
          <mxGeometry relative="1" as="geometry" />
        </mxCell>
        <mxCell id="mF1HwqhdDmIjb0mbFp_T-3" value="Menentukan Kriteria Penilaian" style="rounded=0;whiteSpace=wrap;html=1;" vertex="1" parent="1">
          <mxGeometry x="319.75" y="260" width="155" height="60" as="geometry" />
        </mxCell>
        <mxCell id="mF1HwqhdDmIjb0mbFp_T-13" style="edgeStyle=orthogonalEdgeStyle;rounded=0;orthogonalLoop=1;jettySize=auto;html=1;entryX=0.5;entryY=0;entryDx=0;entryDy=0;" edge="1" parent="1" source="mF1HwqhdDmIjb0mbFp_T-4" target="mF1HwqhdDmIjb0mbFp_T-5">
          <mxGeometry relative="1" as="geometry" />
        </mxCell>
        <mxCell id="mF1HwqhdDmIjb0mbFp_T-4" value="Melakukan Penilaian Manual" style="rounded=0;whiteSpace=wrap;html=1;" vertex="1" parent="1">
          <mxGeometry x="319.75" y="370" width="155" height="60" as="geometry" />
        </mxCell>
        <mxCell id="mF1HwqhdDmIjb0mbFp_T-14" style="edgeStyle=orthogonalEdgeStyle;rounded=0;orthogonalLoop=1;jettySize=auto;html=1;entryX=0.5;entryY=0;entryDx=0;entryDy=0;" edge="1" parent="1" source="mF1HwqhdDmIjb0mbFp_T-5" target="mF1HwqhdDmIjb0mbFp_T-6">
          <mxGeometry relative="1" as="geometry" />
        </mxCell>
        <mxCell id="mF1HwqhdDmIjb0mbFp_T-5" value="Rekapitulasi Manual" style="rounded=0;whiteSpace=wrap;html=1;" vertex="1" parent="1">
          <mxGeometry x="319.75" y="480" width="155" height="60" as="geometry" />
        </mxCell>
        <mxCell id="mF1HwqhdDmIjb0mbFp_T-16" style="edgeStyle=orthogonalEdgeStyle;rounded=0;orthogonalLoop=1;jettySize=auto;html=1;entryX=0.5;entryY=0;entryDx=0;entryDy=0;" edge="1" parent="1" source="mF1HwqhdDmIjb0mbFp_T-6" target="mF1HwqhdDmIjb0mbFp_T-7">
          <mxGeometry relative="1" as="geometry" />
        </mxCell>
        <mxCell id="mF1HwqhdDmIjb0mbFp_T-6" value="Menentukan Guru Terbaik" style="rounded=0;whiteSpace=wrap;html=1;" vertex="1" parent="1">
          <mxGeometry x="319.75" y="590" width="155" height="60" as="geometry" />
        </mxCell>
        <mxCell id="mF1HwqhdDmIjb0mbFp_T-21" style="edgeStyle=orthogonalEdgeStyle;rounded=0;orthogonalLoop=1;jettySize=auto;html=1;entryX=0.5;entryY=0;entryDx=0;entryDy=0;" edge="1" parent="1" source="mF1HwqhdDmIjb0mbFp_T-7" target="mF1HwqhdDmIjb0mbFp_T-8">
          <mxGeometry relative="1" as="geometry" />
        </mxCell>
        <mxCell id="mF1HwqhdDmIjb0mbFp_T-7" value="Mengumumkan Hasil Penilaian" style="rounded=0;whiteSpace=wrap;html=1;" vertex="1" parent="1">
          <mxGeometry x="319.75" y="700" width="155" height="60" as="geometry" />
        </mxCell>
        <mxCell id="mF1HwqhdDmIjb0mbFp_T-22" style="edgeStyle=orthogonalEdgeStyle;rounded=0;orthogonalLoop=1;jettySize=auto;html=1;entryX=0.5;entryY=0;entryDx=0;entryDy=0;" edge="1" parent="1" source="mF1HwqhdDmIjb0mbFp_T-8" target="mF1HwqhdDmIjb0mbFp_T-9">
          <mxGeometry relative="1" as="geometry" />
        </mxCell>
        <mxCell id="mF1HwqhdDmIjb0mbFp_T-8" value="Menyimpan Dokumen Penilaian" style="rounded=0;whiteSpace=wrap;html=1;" vertex="1" parent="1">
          <mxGeometry x="319.75" y="810" width="155" height="60" as="geometry" />
        </mxCell>
        <mxCell id="mF1HwqhdDmIjb0mbFp_T-26" value="" style="edgeStyle=orthogonalEdgeStyle;rounded=0;orthogonalLoop=1;jettySize=auto;html=1;" edge="1" parent="1" source="mF1HwqhdDmIjb0mbFp_T-9">
          <mxGeometry relative="1" as="geometry">
            <mxPoint x="477.2499999999998" y="940" as="targetPoint" />
          </mxGeometry>
        </mxCell>
        <mxCell id="mF1HwqhdDmIjb0mbFp_T-9" value="" style="ellipse;html=1;shape=endState;fillColor=#000000;strokeColor=#ff0000;" vertex="1" parent="1">
          <mxGeometry x="377.25" y="920" width="40" height="40" as="geometry" />
        </mxCell>
      </root>
    </mxGraphModel>
  </diagram>
</mxfile>
